<svg width="604" height="664" viewBox="0 0 604 664" fill="none" xmlns="http://www.w3.org/2000/svg">
<rect x="0.5" y="0.5" width="603" height="663" rx="23.5" stroke="white"/>
<g clip-path="url(#clip0_2010_3949)">
<mask id="path-2-inside-1_2010_3949" fill="white">
<path fill-rule="evenodd" clip-rule="evenodd" d="M452 56.2433C452 53.7558 449.488 52 447 52C438.716 52 432 45.2843 432 37C432 34.5125 430.244 32 427.757 32H176.243C173.756 32 172 34.5125 172 37C172 45.2843 165.284 52 157 52C154.512 52 152 53.7558 152 56.2433V500.757C152 503.244 154.512 505 157 505C165.284 505 172 511.716 172 520C172 528.284 165.284 535 157 535C154.512 535 152 536.756 152 539.243V607.757C152 610.244 154.512 612 157 612C165.284 612 172 618.716 172 627C172 629.488 173.756 632 176.243 632H427.757C430.244 632 432 629.488 432 627C432 618.716 438.716 612 447 612C449.488 612 452 610.244 452 607.757V539.243C452 536.756 449.488 535 447 535C438.716 535 432 528.284 432 520C432 511.716 438.716 505 447 505C449.488 505 452 503.244 452 500.757V56.2433ZM432 519C432 519.552 431.552 520 431 520H425C424.448 520 424 519.552 424 519C424 518.448 424.448 518 425 518H431C431.552 518 432 518.448 432 519ZM419 520C419.552 520 420 519.552 420 519C420 518.448 419.552 518 419 518H413C412.448 518 412 518.448 412 519C412 519.552 412.448 520 413 520H419ZM408 519C408 519.552 407.552 520 407 520H401C400.448 520 400 519.552 400 519C400 518.448 400.448 518 401 518H407C407.552 518 408 518.448 408 519ZM395 520C395.552 520 396 519.552 396 519C396 518.448 395.552 518 395 518H389C388.448 518 388 518.448 388 519C388 519.552 388.448 520 389 520H395ZM384 519C384 519.552 383.552 520 383 520H377C376.448 520 376 519.552 376 519C376 518.448 376.448 518 377 518H383C383.552 518 384 518.448 384 519ZM371 520C371.552 520 372 519.552 372 519C372 518.448 371.552 518 371 518H365C364.448 518 364 518.448 364 519C364 519.552 364.448 520 365 520H371ZM360 519C360 519.552 359.552 520 359 520H353C352.448 520 352 519.552 352 519C352 518.448 352.448 518 353 518H359C359.552 518 360 518.448 360 519ZM347 520C347.552 520 348 519.552 348 519C348 518.448 347.552 518 347 518H341C340.448 518 340 518.448 340 519C340 519.552 340.448 520 341 520H347ZM336 519C336 519.552 335.552 520 335 520H329C328.448 520 328 519.552 328 519C328 518.448 328.448 518 329 518H335C335.552 518 336 518.448 336 519ZM323 520C323.552 520 324 519.552 324 519C324 518.448 323.552 518 323 518H317C316.448 518 316 518.448 316 519C316 519.552 316.448 520 317 520H323ZM312 519C312 519.552 311.552 520 311 520H305C304.448 520 304 519.552 304 519C304 518.448 304.448 518 305 518H311C311.552 518 312 518.448 312 519ZM299 520C299.552 520 300 519.552 300 519C300 518.448 299.552 518 299 518H293C292.448 518 292 518.448 292 519C292 519.552 292.448 520 293 520H299ZM288 519C288 519.552 287.552 520 287 520H281C280.448 520 280 519.552 280 519C280 518.448 280.448 518 281 518H287C287.552 518 288 518.448 288 519ZM275 520C275.552 520 276 519.552 276 519C276 518.448 275.552 518 275 518H269C268.448 518 268 518.448 268 519C268 519.552 268.448 520 269 520H275ZM264 519C264 519.552 263.552 520 263 520H257C256.448 520 256 519.552 256 519C256 518.448 256.448 518 257 518H263C263.552 518 264 518.448 264 519ZM251 520C251.552 520 252 519.552 252 519C252 518.448 251.552 518 251 518H245C244.448 518 244 518.448 244 519C244 519.552 244.448 520 245 520H251ZM240 519C240 519.552 239.552 520 239 520H233C232.448 520 232 519.552 232 519C232 518.448 232.448 518 233 518H239C239.552 518 240 518.448 240 519ZM227 520C227.552 520 228 519.552 228 519C228 518.448 227.552 518 227 518H221C220.448 518 220 518.448 220 519C220 519.552 220.448 520 221 520H227ZM216 519C216 519.552 215.552 520 215 520H209C208.448 520 208 519.552 208 519C208 518.448 208.448 518 209 518H215C215.552 518 216 518.448 216 519ZM203 520C203.552 520 204 519.552 204 519C204 518.448 203.552 518 203 518H197C196.448 518 196 518.448 196 519C196 519.552 196.448 520 197 520H203ZM192 519C192 519.552 191.552 520 191 520H185C184.448 520 184 519.552 184 519C184 518.448 184.448 518 185 518H191C191.552 518 192 518.448 192 519ZM179 520C179.552 520 180 519.552 180 519C180 518.448 179.552 518 179 518H173C172.448 518 172 518.448 172 519C172 519.552 172.448 520 173 520H179Z"/>
</mask>
<path fill-rule="evenodd" clip-rule="evenodd" d="M452 56.2433C452 53.7558 449.488 52 447 52C438.716 52 432 45.2843 432 37C432 34.5125 430.244 32 427.757 32H176.243C173.756 32 172 34.5125 172 37C172 45.2843 165.284 52 157 52C154.512 52 152 53.7558 152 56.2433V500.757C152 503.244 154.512 505 157 505C165.284 505 172 511.716 172 520C172 528.284 165.284 535 157 535C154.512 535 152 536.756 152 539.243V607.757C152 610.244 154.512 612 157 612C165.284 612 172 618.716 172 627C172 629.488 173.756 632 176.243 632H427.757C430.244 632 432 629.488 432 627C432 618.716 438.716 612 447 612C449.488 612 452 610.244 452 607.757V539.243C452 536.756 449.488 535 447 535C438.716 535 432 528.284 432 520C432 511.716 438.716 505 447 505C449.488 505 452 503.244 452 500.757V56.2433ZM432 519C432 519.552 431.552 520 431 520H425C424.448 520 424 519.552 424 519C424 518.448 424.448 518 425 518H431C431.552 518 432 518.448 432 519ZM419 520C419.552 520 420 519.552 420 519C420 518.448 419.552 518 419 518H413C412.448 518 412 518.448 412 519C412 519.552 412.448 520 413 520H419ZM408 519C408 519.552 407.552 520 407 520H401C400.448 520 400 519.552 400 519C400 518.448 400.448 518 401 518H407C407.552 518 408 518.448 408 519ZM395 520C395.552 520 396 519.552 396 519C396 518.448 395.552 518 395 518H389C388.448 518 388 518.448 388 519C388 519.552 388.448 520 389 520H395ZM384 519C384 519.552 383.552 520 383 520H377C376.448 520 376 519.552 376 519C376 518.448 376.448 518 377 518H383C383.552 518 384 518.448 384 519ZM371 520C371.552 520 372 519.552 372 519C372 518.448 371.552 518 371 518H365C364.448 518 364 518.448 364 519C364 519.552 364.448 520 365 520H371ZM360 519C360 519.552 359.552 520 359 520H353C352.448 520 352 519.552 352 519C352 518.448 352.448 518 353 518H359C359.552 518 360 518.448 360 519ZM347 520C347.552 520 348 519.552 348 519C348 518.448 347.552 518 347 518H341C340.448 518 340 518.448 340 519C340 519.552 340.448 520 341 520H347ZM336 519C336 519.552 335.552 520 335 520H329C328.448 520 328 519.552 328 519C328 518.448 328.448 518 329 518H335C335.552 518 336 518.448 336 519ZM323 520C323.552 520 324 519.552 324 519C324 518.448 323.552 518 323 518H317C316.448 518 316 518.448 316 519C316 519.552 316.448 520 317 520H323ZM312 519C312 519.552 311.552 520 311 520H305C304.448 520 304 519.552 304 519C304 518.448 304.448 518 305 518H311C311.552 518 312 518.448 312 519ZM299 520C299.552 520 300 519.552 300 519C300 518.448 299.552 518 299 518H293C292.448 518 292 518.448 292 519C292 519.552 292.448 520 293 520H299ZM288 519C288 519.552 287.552 520 287 520H281C280.448 520 280 519.552 280 519C280 518.448 280.448 518 281 518H287C287.552 518 288 518.448 288 519ZM275 520C275.552 520 276 519.552 276 519C276 518.448 275.552 518 275 518H269C268.448 518 268 518.448 268 519C268 519.552 268.448 520 269 520H275ZM264 519C264 519.552 263.552 520 263 520H257C256.448 520 256 519.552 256 519C256 518.448 256.448 518 257 518H263C263.552 518 264 518.448 264 519ZM251 520C251.552 520 252 519.552 252 519C252 518.448 251.552 518 251 518H245C244.448 518 244 518.448 244 519C244 519.552 244.448 520 245 520H251ZM240 519C240 519.552 239.552 520 239 520H233C232.448 520 232 519.552 232 519C232 518.448 232.448 518 233 518H239C239.552 518 240 518.448 240 519ZM227 520C227.552 520 228 519.552 228 519C228 518.448 227.552 518 227 518H221C220.448 518 220 518.448 220 519C220 519.552 220.448 520 221 520H227ZM216 519C216 519.552 215.552 520 215 520H209C208.448 520 208 519.552 208 519C208 518.448 208.448 518 209 518H215C215.552 518 216 518.448 216 519ZM203 520C203.552 520 204 519.552 204 519C204 518.448 203.552 518 203 518H197C196.448 518 196 518.448 196 519C196 519.552 196.448 520 197 520H203ZM192 519C192 519.552 191.552 520 191 520H185C184.448 520 184 519.552 184 519C184 518.448 184.448 518 185 518H191C191.552 518 192 518.448 192 519ZM179 520C179.552 520 180 519.552 180 519C180 518.448 179.552 518 179 518H173C172.448 518 172 518.448 172 519C172 519.552 172.448 520 173 520H179Z" fill="#072C31"/>
<path fill-rule="evenodd" clip-rule="evenodd" d="M452 56.2433C452 53.7558 449.488 52 447 52C438.716 52 432 45.2843 432 37C432 34.5125 430.244 32 427.757 32H176.243C173.756 32 172 34.5125 172 37C172 45.2843 165.284 52 157 52C154.512 52 152 53.7558 152 56.2433V500.757C152 503.244 154.512 505 157 505C165.284 505 172 511.716 172 520C172 528.284 165.284 535 157 535C154.512 535 152 536.756 152 539.243V607.757C152 610.244 154.512 612 157 612C165.284 612 172 618.716 172 627C172 629.488 173.756 632 176.243 632H427.757C430.244 632 432 629.488 432 627C432 618.716 438.716 612 447 612C449.488 612 452 610.244 452 607.757V539.243C452 536.756 449.488 535 447 535C438.716 535 432 528.284 432 520C432 511.716 438.716 505 447 505C449.488 505 452 503.244 452 500.757V56.2433ZM432 519C432 519.552 431.552 520 431 520H425C424.448 520 424 519.552 424 519C424 518.448 424.448 518 425 518H431C431.552 518 432 518.448 432 519ZM419 520C419.552 520 420 519.552 420 519C420 518.448 419.552 518 419 518H413C412.448 518 412 518.448 412 519C412 519.552 412.448 520 413 520H419ZM408 519C408 519.552 407.552 520 407 520H401C400.448 520 400 519.552 400 519C400 518.448 400.448 518 401 518H407C407.552 518 408 518.448 408 519ZM395 520C395.552 520 396 519.552 396 519C396 518.448 395.552 518 395 518H389C388.448 518 388 518.448 388 519C388 519.552 388.448 520 389 520H395ZM384 519C384 519.552 383.552 520 383 520H377C376.448 520 376 519.552 376 519C376 518.448 376.448 518 377 518H383C383.552 518 384 518.448 384 519ZM371 520C371.552 520 372 519.552 372 519C372 518.448 371.552 518 371 518H365C364.448 518 364 518.448 364 519C364 519.552 364.448 520 365 520H371ZM360 519C360 519.552 359.552 520 359 520H353C352.448 520 352 519.552 352 519C352 518.448 352.448 518 353 518H359C359.552 518 360 518.448 360 519ZM347 520C347.552 520 348 519.552 348 519C348 518.448 347.552 518 347 518H341C340.448 518 340 518.448 340 519C340 519.552 340.448 520 341 520H347ZM336 519C336 519.552 335.552 520 335 520H329C328.448 520 328 519.552 328 519C328 518.448 328.448 518 329 518H335C335.552 518 336 518.448 336 519ZM323 520C323.552 520 324 519.552 324 519C324 518.448 323.552 518 323 518H317C316.448 518 316 518.448 316 519C316 519.552 316.448 520 317 520H323ZM312 519C312 519.552 311.552 520 311 520H305C304.448 520 304 519.552 304 519C304 518.448 304.448 518 305 518H311C311.552 518 312 518.448 312 519ZM299 520C299.552 520 300 519.552 300 519C300 518.448 299.552 518 299 518H293C292.448 518 292 518.448 292 519C292 519.552 292.448 520 293 520H299ZM288 519C288 519.552 287.552 520 287 520H281C280.448 520 280 519.552 280 519C280 518.448 280.448 518 281 518H287C287.552 518 288 518.448 288 519ZM275 520C275.552 520 276 519.552 276 519C276 518.448 275.552 518 275 518H269C268.448 518 268 518.448 268 519C268 519.552 268.448 520 269 520H275ZM264 519C264 519.552 263.552 520 263 520H257C256.448 520 256 519.552 256 519C256 518.448 256.448 518 257 518H263C263.552 518 264 518.448 264 519ZM251 520C251.552 520 252 519.552 252 519C252 518.448 251.552 518 251 518H245C244.448 518 244 518.448 244 519C244 519.552 244.448 520 245 520H251ZM240 519C240 519.552 239.552 520 239 520H233C232.448 520 232 519.552 232 519C232 518.448 232.448 518 233 518H239C239.552 518 240 518.448 240 519ZM227 520C227.552 520 228 519.552 228 519C228 518.448 227.552 518 227 518H221C220.448 518 220 518.448 220 519C220 519.552 220.448 520 221 520H227ZM216 519C216 519.552 215.552 520 215 520H209C208.448 520 208 519.552 208 519C208 518.448 208.448 518 209 518H215C215.552 518 216 518.448 216 519ZM203 520C203.552 520 204 519.552 204 519C204 518.448 203.552 518 203 518H197C196.448 518 196 518.448 196 519C196 519.552 196.448 520 197 520H203ZM192 519C192 519.552 191.552 520 191 520H185C184.448 520 184 519.552 184 519C184 518.448 184.448 518 185 518H191C191.552 518 192 518.448 192 519ZM179 520C179.552 520 180 519.552 180 519C180 518.448 179.552 518 179 518H173C172.448 518 172 518.448 172 519C172 519.552 172.448 520 173 520H179Z" fill="url(#paint0_radial_2010_3949)"/>
<path fill-rule="evenodd" clip-rule="evenodd" d="M452 56.2433C452 53.7558 449.488 52 447 52C438.716 52 432 45.2843 432 37C432 34.5125 430.244 32 427.757 32H176.243C173.756 32 172 34.5125 172 37C172 45.2843 165.284 52 157 52C154.512 52 152 53.7558 152 56.2433V500.757C152 503.244 154.512 505 157 505C165.284 505 172 511.716 172 520C172 528.284 165.284 535 157 535C154.512 535 152 536.756 152 539.243V607.757C152 610.244 154.512 612 157 612C165.284 612 172 618.716 172 627C172 629.488 173.756 632 176.243 632H427.757C430.244 632 432 629.488 432 627C432 618.716 438.716 612 447 612C449.488 612 452 610.244 452 607.757V539.243C452 536.756 449.488 535 447 535C438.716 535 432 528.284 432 520C432 511.716 438.716 505 447 505C449.488 505 452 503.244 452 500.757V56.2433ZM432 519C432 519.552 431.552 520 431 520H425C424.448 520 424 519.552 424 519C424 518.448 424.448 518 425 518H431C431.552 518 432 518.448 432 519ZM419 520C419.552 520 420 519.552 420 519C420 518.448 419.552 518 419 518H413C412.448 518 412 518.448 412 519C412 519.552 412.448 520 413 520H419ZM408 519C408 519.552 407.552 520 407 520H401C400.448 520 400 519.552 400 519C400 518.448 400.448 518 401 518H407C407.552 518 408 518.448 408 519ZM395 520C395.552 520 396 519.552 396 519C396 518.448 395.552 518 395 518H389C388.448 518 388 518.448 388 519C388 519.552 388.448 520 389 520H395ZM384 519C384 519.552 383.552 520 383 520H377C376.448 520 376 519.552 376 519C376 518.448 376.448 518 377 518H383C383.552 518 384 518.448 384 519ZM371 520C371.552 520 372 519.552 372 519C372 518.448 371.552 518 371 518H365C364.448 518 364 518.448 364 519C364 519.552 364.448 520 365 520H371ZM360 519C360 519.552 359.552 520 359 520H353C352.448 520 352 519.552 352 519C352 518.448 352.448 518 353 518H359C359.552 518 360 518.448 360 519ZM347 520C347.552 520 348 519.552 348 519C348 518.448 347.552 518 347 518H341C340.448 518 340 518.448 340 519C340 519.552 340.448 520 341 520H347ZM336 519C336 519.552 335.552 520 335 520H329C328.448 520 328 519.552 328 519C328 518.448 328.448 518 329 518H335C335.552 518 336 518.448 336 519ZM323 520C323.552 520 324 519.552 324 519C324 518.448 323.552 518 323 518H317C316.448 518 316 518.448 316 519C316 519.552 316.448 520 317 520H323ZM312 519C312 519.552 311.552 520 311 520H305C304.448 520 304 519.552 304 519C304 518.448 304.448 518 305 518H311C311.552 518 312 518.448 312 519ZM299 520C299.552 520 300 519.552 300 519C300 518.448 299.552 518 299 518H293C292.448 518 292 518.448 292 519C292 519.552 292.448 520 293 520H299ZM288 519C288 519.552 287.552 520 287 520H281C280.448 520 280 519.552 280 519C280 518.448 280.448 518 281 518H287C287.552 518 288 518.448 288 519ZM275 520C275.552 520 276 519.552 276 519C276 518.448 275.552 518 275 518H269C268.448 518 268 518.448 268 519C268 519.552 268.448 520 269 520H275ZM264 519C264 519.552 263.552 520 263 520H257C256.448 520 256 519.552 256 519C256 518.448 256.448 518 257 518H263C263.552 518 264 518.448 264 519ZM251 520C251.552 520 252 519.552 252 519C252 518.448 251.552 518 251 518H245C244.448 518 244 518.448 244 519C244 519.552 244.448 520 245 520H251ZM240 519C240 519.552 239.552 520 239 520H233C232.448 520 232 519.552 232 519C232 518.448 232.448 518 233 518H239C239.552 518 240 518.448 240 519ZM227 520C227.552 520 228 519.552 228 519C228 518.448 227.552 518 227 518H221C220.448 518 220 518.448 220 519C220 519.552 220.448 520 221 520H227ZM216 519C216 519.552 215.552 520 215 520H209C208.448 520 208 519.552 208 519C208 518.448 208.448 518 209 518H215C215.552 518 216 518.448 216 519ZM203 520C203.552 520 204 519.552 204 519C204 518.448 203.552 518 203 518H197C196.448 518 196 518.448 196 519C196 519.552 196.448 520 197 520H203ZM192 519C192 519.552 191.552 520 191 520H185C184.448 520 184 519.552 184 519C184 518.448 184.448 518 185 518H191C191.552 518 192 518.448 192 519ZM179 520C179.552 520 180 519.552 180 519C180 518.448 179.552 518 179 518H173C172.448 518 172 518.448 172 519C172 519.552 172.448 520 173 520H179Z" fill="url(#paint1_radial_2010_3949)"/>
<path d="M431 37C431 45.8366 438.163 53 447 53V51C439.268 51 433 44.732 433 37H431ZM176.243 33H427.757V31H176.243V33ZM157 53C165.837 53 173 45.8366 173 37H171C171 44.732 164.732 51 157 51V53ZM153 500.757V56.2433H151V500.757H153ZM173 520C173 511.163 165.837 504 157 504V506C164.732 506 171 512.268 171 520H173ZM157 536C165.837 536 173 528.837 173 520H171C171 527.732 164.732 534 157 534V536ZM153 607.757V539.243H151V607.757H153ZM173 627C173 618.163 165.837 611 157 611V613C164.732 613 171 619.268 171 627H173ZM427.757 631H176.243V633H427.757V631ZM433 627C433 619.268 439.268 613 447 613V611C438.163 611 431 618.163 431 627H433ZM451 539.243V607.757H453V539.243H451ZM431 520C431 528.837 438.163 536 447 536V534C439.268 534 433 527.732 433 520H431ZM447 504C438.163 504 431 511.163 431 520H433C433 512.268 439.268 506 447 506V504ZM451 56.2433V500.757H453V56.2433H451ZM431 521C432.105 521 433 520.105 433 519H431V521ZM425 521H431V519H425V521ZM423 519C423 520.105 423.895 521 425 521V519H423ZM425 517C423.895 517 423 517.895 423 519H425V517ZM431 517H425V519H431V517ZM433 519C433 517.895 432.105 517 431 517V519H433ZM419 519V521C420.105 521 421 520.105 421 519H419ZM419 519H421C421 517.895 420.105 517 419 517V519ZM413 519H419V517H413V519ZM413 519V517C411.895 517 411 517.895 411 519H413ZM413 519H411C411 520.105 411.895 521 413 521V519ZM419 519H413V521H419V519ZM407 521C408.105 521 409 520.105 409 519H407V521ZM401 521H407V519H401V521ZM399 519C399 520.105 399.895 521 401 521V519H399ZM401 517C399.895 517 399 517.895 399 519H401V517ZM407 517H401V519H407V517ZM409 519C409 517.895 408.105 517 407 517V519H409ZM395 519V521C396.105 521 397 520.105 397 519H395ZM395 519H397C397 517.895 396.105 517 395 517V519ZM389 519H395V517H389V519ZM389 519V517C387.895 517 387 517.895 387 519H389ZM389 519H387C387 520.105 387.895 521 389 521V519ZM395 519H389V521H395V519ZM383 521C384.105 521 385 520.105 385 519H383V521ZM377 521H383V519H377V521ZM375 519C375 520.105 375.895 521 377 521V519H375ZM377 517C375.895 517 375 517.895 375 519H377V517ZM383 517H377V519H383V517ZM385 519C385 517.895 384.105 517 383 517V519H385ZM371 519V521C372.105 521 373 520.105 373 519H371ZM371 519H373C373 517.895 372.105 517 371 517V519ZM365 519H371V517H365V519ZM365 519V517C363.895 517 363 517.895 363 519H365ZM365 519H363C363 520.105 363.895 521 365 521V519ZM371 519H365V521H371V519ZM359 521C360.105 521 361 520.105 361 519H359V521ZM353 521H359V519H353V521ZM351 519C351 520.105 351.895 521 353 521V519H351ZM353 517C351.895 517 351 517.895 351 519H353V517ZM359 517H353V519H359V517ZM361 519C361 517.895 360.105 517 359 517V519H361ZM347 519V521C348.105 521 349 520.105 349 519H347ZM347 519H349C349 517.895 348.105 517 347 517V519ZM341 519H347V517H341V519ZM341 519V517C339.895 517 339 517.895 339 519H341ZM341 519H339C339 520.105 339.895 521 341 521V519ZM347 519H341V521H347V519ZM335 521C336.105 521 337 520.105 337 519H335V521ZM329 521H335V519H329V521ZM327 519C327 520.105 327.895 521 329 521V519H327ZM329 517C327.895 517 327 517.895 327 519H329V517ZM335 517H329V519H335V517ZM337 519C337 517.895 336.105 517 335 517V519H337ZM323 519V521C324.105 521 325 520.105 325 519H323ZM323 519H325C325 517.895 324.105 517 323 517V519ZM317 519H323V517H317V519ZM317 519V517C315.895 517 315 517.895 315 519H317ZM317 519H315C315 520.105 315.895 521 317 521V519ZM323 519H317V521H323V519ZM311 521C312.105 521 313 520.105 313 519H311V521ZM305 521H311V519H305V521ZM303 519C303 520.105 303.895 521 305 521V519H303ZM305 517C303.895 517 303 517.895 303 519H305V517ZM311 517H305V519H311V517ZM313 519C313 517.895 312.105 517 311 517V519H313ZM299 519V521C300.105 521 301 520.105 301 519H299ZM299 519H301C301 517.895 300.105 517 299 517V519ZM293 519H299V517H293V519ZM293 519V517C291.895 517 291 517.895 291 519H293ZM293 519H291C291 520.105 291.895 521 293 521V519ZM299 519H293V521H299V519ZM287 521C288.105 521 289 520.105 289 519H287V521ZM281 521H287V519H281V521ZM279 519C279 520.105 279.895 521 281 521V519H279ZM281 517C279.895 517 279 517.895 279 519H281V517ZM287 517H281V519H287V517ZM289 519C289 517.895 288.105 517 287 517V519H289ZM275 519V521C276.105 521 277 520.105 277 519H275ZM275 519H277C277 517.895 276.105 517 275 517V519ZM269 519H275V517H269V519ZM269 519V517C267.895 517 267 517.895 267 519H269ZM269 519H267C267 520.105 267.895 521 269 521V519ZM275 519H269V521H275V519ZM263 521C264.105 521 265 520.105 265 519H263V521ZM257 521H263V519H257V521ZM255 519C255 520.105 255.895 521 257 521V519H255ZM257 517C255.895 517 255 517.895 255 519H257V517ZM263 517H257V519H263V517ZM265 519C265 517.895 264.105 517 263 517V519H265ZM251 519V521C252.105 521 253 520.105 253 519H251ZM251 519H253C253 517.895 252.105 517 251 517V519ZM245 519H251V517H245V519ZM245 519V517C243.895 517 243 517.895 243 519H245ZM245 519H243C243 520.105 243.895 521 245 521V519ZM251 519H245V521H251V519ZM239 521C240.105 521 241 520.105 241 519H239V521ZM233 521H239V519H233V521ZM231 519C231 520.105 231.895 521 233 521V519H231ZM233 517C231.895 517 231 517.895 231 519H233V517ZM239 517H233V519H239V517ZM241 519C241 517.895 240.105 517 239 517V519H241ZM227 519V521C228.105 521 229 520.105 229 519H227ZM227 519H229C229 517.895 228.105 517 227 517V519ZM221 519H227V517H221V519ZM221 519V517C219.895 517 219 517.895 219 519H221ZM221 519H219C219 520.105 219.895 521 221 521V519ZM227 519H221V521H227V519ZM215 521C216.105 521 217 520.105 217 519H215V521ZM209 521H215V519H209V521ZM207 519C207 520.105 207.895 521 209 521V519H207ZM209 517C207.895 517 207 517.895 207 519H209V517ZM215 517H209V519H215V517ZM217 519C217 517.895 216.105 517 215 517V519H217ZM203 519V521C204.105 521 205 520.105 205 519H203ZM203 519H205C205 517.895 204.105 517 203 517V519ZM197 519H203V517H197V519ZM197 519V517C195.895 517 195 517.895 195 519H197ZM197 519H195C195 520.105 195.895 521 197 521V519ZM203 519H197V521H203V519ZM191 521C192.105 521 193 520.105 193 519H191V521ZM185 521H191V519H185V521ZM183 519C183 520.105 183.895 521 185 521V519H183ZM185 517C183.895 517 183 517.895 183 519H185V517ZM191 517H185V519H191V517ZM193 519C193 517.895 192.105 517 191 517V519H193ZM179 519V521C180.105 521 181 520.105 181 519H179ZM179 519H181C181 517.895 180.105 517 179 517V519ZM173 519H179V517H173V519ZM173 519V517C171.895 517 171 517.895 171 519H173ZM173 519H171C171 520.105 171.895 521 173 521V519ZM179 519H173V521H179V519ZM447 506C448.467 506 449.938 505.486 451.057 504.593C452.183 503.693 453 502.363 453 500.757H451C451 501.638 450.56 502.43 449.809 503.03C449.05 503.636 448.02 504 447 504V506ZM453 539.243C453 537.637 452.183 536.307 451.057 535.407C449.938 534.514 448.467 534 447 534V536C448.02 536 449.05 536.364 449.809 536.97C450.56 537.57 451 538.362 451 539.243H453ZM447 613C448.467 613 449.938 612.486 451.057 611.593C452.183 610.693 453 609.363 453 607.757H451C451 608.638 450.56 609.43 449.809 610.03C449.05 610.636 448.02 611 447 611V613ZM427.757 633C429.363 633 430.693 632.183 431.593 631.057C432.486 629.938 433 628.467 433 627H431C431 628.02 430.636 629.05 430.03 629.809C429.43 630.56 428.638 631 427.757 631V633ZM171 627C171 628.467 171.514 629.938 172.407 631.057C173.307 632.183 174.637 633 176.243 633V631C175.363 631 174.57 630.56 173.97 629.809C173.364 629.05 173 628.02 173 627H171ZM151 607.757C151 609.363 151.817 610.693 152.943 611.593C154.062 612.486 155.533 613 157 613V611C155.98 611 154.95 610.636 154.191 610.03C153.44 609.43 153 608.638 153 607.757H151ZM157 51C155.533 51 154.062 51.5139 152.943 52.4074C151.817 53.307 151 54.6366 151 56.2433H153C153 55.3625 153.44 54.5704 154.191 53.9703C154.95 53.364 155.98 53 157 53V51ZM176.243 31C174.637 31 173.307 31.8166 172.407 32.9432C171.514 34.0621 171 35.5328 171 37H173C173 35.9796 173.364 34.9504 173.97 34.1912C174.57 33.4396 175.362 33 176.243 33V31ZM151 500.757C151 502.363 151.817 503.693 152.943 504.593C154.062 505.486 155.533 506 157 506V504C155.98 504 154.95 503.636 154.191 503.03C153.44 502.43 153 501.638 153 500.757H151ZM433 37C433 35.5329 432.486 34.0621 431.593 32.9432C430.693 31.8166 429.363 31 427.757 31V33C428.638 33 429.43 33.4396 430.03 34.1912C430.636 34.9504 431 35.9796 431 37H433ZM157 534C155.533 534 154.062 534.514 152.943 535.407C151.817 536.307 151 537.637 151 539.243H153C153 538.362 153.44 537.57 154.191 536.97C154.95 536.364 155.98 536 157 536V534ZM447 53C448.02 53 449.05 53.364 449.809 53.9703C450.56 54.5704 451 55.3625 451 56.2433H453C453 54.6366 452.183 53.307 451.057 52.4074C449.938 51.5139 448.467 51 447 51V53Z" fill="#24A0B5" mask="url(#path-2-inside-1_2010_3949)"/>
</g>
<defs>
<radialGradient id="paint0_radial_2010_3949" cx="0" cy="0" r="1" gradientUnits="userSpaceOnUse" gradientTransform="translate(302 32) rotate(90) scale(83.5 150)">
<stop stop-color="#24A0B5" stop-opacity="0.5"/>
<stop offset="1" stop-color="#24A0B5" stop-opacity="0"/>
</radialGradient>
<radialGradient id="paint1_radial_2010_3949" cx="0" cy="0" r="1" gradientUnits="userSpaceOnUse" gradientTransform="translate(302 651.5) rotate(-90) scale(217 150)">
<stop stop-color="#24A0B5" stop-opacity="0.5"/>
<stop offset="1" stop-color="#24A0B5" stop-opacity="0"/>
</radialGradient>
<clipPath id="clip0_2010_3949">
<rect width="300" height="600" fill="white" transform="translate(152 32)"/>
</clipPath>
</defs>
</svg>
